<svg width="120" height="30" viewBox="0 0 120 30" fill="none" xmlns="http://www.w3.org/2000/svg">
<g clip-path="url(#clip0_2_421)">
<path d="M51.2752 10.3971L51.2754 10.396L50.5078 13.0667L51.2752 10.3971H51.2752Z" fill="#808080"/>
<path d="M55.2248 16.1951L54.3789 16.1902L55.2248 16.1951Z" fill="#808080"/>
<path d="M55.0047 20.1833H55.0057L49.9375 20.2015L55.005 20.1833H55.0047Z" fill="#808080"/>
<path d="M56.0689 16.2L55.2227 16.1951L56.0689 16.2Z" fill="#808080"/>
<path d="M55.4492 19.8444L56.332 16.5393L55.4492 19.8451V19.8446V19.8444Z" fill="#808080"/>
<path d="M74.1094 4.62378L72.4648 12.2132L74.1094 4.62378Z" fill="#808080"/>
<path d="M69.8813 4.62386L68.6328 10.2935L69.8813 4.62341V4.62386Z" fill="#808080"/>
<path d="M73.8261 4.28235H70.3095C70.1143 4.28235 69.9206 4.43602 69.8789 4.62318L68.6305 10.2932L67.382 15.9633C67.3406 16.1505 67.1472 16.3036 66.9521 16.3036H64.8183H64.463C62.0004 16.3036 62.2853 14.6318 62.7896 12.3409C62.7946 12.3179 62.7997 12.2954 62.8047 12.2718L62.86 11.9831C62.8634 11.9644 62.8673 11.9458 62.8703 11.9287L62.9827 11.3409L63.1032 10.7109C63.1398 10.521 63.1955 10.2432 63.2318 10.0687L63.7993 7.34654L64.3673 4.62437C64.4065 4.43666 64.2784 4.28244 64.0833 4.28244H60.4737C60.2786 4.28244 60.0854 4.43666 60.0454 4.62383L59.2694 8.23849L58.4934 11.8527C58.4927 11.8543 58.4924 11.8565 58.4922 11.8582L58.4201 12.1941C57.5261 16.2006 57.7632 20.0212 62.6217 20.1408C62.7011 20.143 62.7626 20.1436 62.7626 20.1436H70.389C70.5841 20.1436 70.7773 19.9899 70.8181 19.8022L72.4627 12.2134L74.1073 4.62394C74.1479 4.43623 74.0212 4.28255 73.8261 4.28255L73.8261 4.28235Z" fill="#1A1918"/>
<path d="M87.8584 16.3433C88.0538 16.3433 88.1815 16.4969 88.1424 16.6847L87.8008 18.3229" fill="#808080"/>
<path d="M87.4573 19.9622L87.7986 18.3228L87.457 19.9627C87.457 19.9622 87.4573 19.9622 87.4573 19.9622L87.4573 19.9622Z" fill="#808080"/>
<path d="M87.0315 20.307C87.0319 20.307 87.0326 20.3065 87.0331 20.3065C85.9982 20.3147 82.8883 20.3378 80.5508 20.3378C83.3955 20.3378 87.0312 20.3071 87.0312 20.3071L87.0315 20.307Z" fill="#808080"/>
<path d="M78.4496 14.233C78.4467 14.0536 78.6547 13.7446 78.8501 13.7446L78.411 13.7374C78.2131 15.6913 78.4496 14.233 78.4496 14.233H78.4496Z" fill="#808080"/>
<path d="M80.8684 20.3372C80.8461 20.3372 80.8232 20.3372 80.8008 20.3376C80.8231 20.3372 80.8461 20.3372 80.8684 20.3372Z" fill="#808080"/>
<path d="M87.8554 16.3433C88.0508 16.3433 88.1786 16.4969 88.1394 16.6847L87.7978 18.323L87.7422 18.5902" fill="#808080"/>
<path d="M81.407 20.3367C81.379 20.3367 81.3516 20.3367 81.3242 20.3371C81.3516 20.3367 81.379 20.3367 81.407 20.3367Z" fill="#808080"/>
<path d="M81.6193 20.3361C81.548 20.3361 81.4767 20.3365 81.4062 20.3365C81.4767 20.3365 81.548 20.3361 81.6193 20.3361Z" fill="#808080"/>
<path d="M82.5203 20.3333C82.2357 20.3344 81.9517 20.3355 81.6719 20.3361C81.9517 20.3356 82.236 20.3345 82.5203 20.3333Z" fill="#808080"/>
<path d="M87.034 20.3063H87.0342C86.2758 20.3123 84.4029 20.326 82.5352 20.3332C84.402 20.3266 86.2753 20.3123 87.034 20.3063Z" fill="#808080"/>
<path d="M87.4573 19.9629L87.7433 18.5902L87.457 19.964C87.457 19.9635 87.4573 19.9635 87.4573 19.9628L87.4573 19.9629Z" fill="#808080"/>
<path d="M29.623 14.2741L30.1692 11.897L29.5447 14.6142L28.9453 17.382L29.4706 14.9557C29.5111 14.768 29.5799 14.4612 29.6229 14.274L29.623 14.2741Z" fill="#808080"/>
<path d="M36.1618 4.24231H32.2998C32.1044 4.24231 31.9095 4.39544 31.8659 4.58204L31.4997 6.16874L31.1335 7.75601C31.0905 7.94261 31.2149 8.09573 31.4103 8.09573H35.3023C35.4974 8.09573 35.6914 7.94261 35.7333 7.75545L36.0872 6.16874L36.4411 4.58314V4.58269C36.4828 4.39553 36.3573 4.2424 36.1619 4.2424L36.1618 4.24231Z" fill="#1A1918"/>
<path d="M35.3242 9.52059V9.52014L34.1914 14.6644L35.3242 9.52059Z" fill="#808080"/>
<path d="M24.1031 26.5649C24.1031 26.5649 26.0499 26.5896 27.2874 26.5896C26.3473 26.5896 24.7947 26.5726 24.1015 26.5643C24.1022 26.5643 24.1026 26.5648 24.1033 26.5648L24.1031 26.5649Z" fill="#808080"/>
<path d="M30.7187 9.52002L30.1719 11.8971L30.7187 9.52002Z" fill="#808080"/>
<path d="M35.0426 9.17981H31.1501C30.955 9.17981 30.7599 9.33294 30.7168 9.5201L30.17 11.8972L29.6238 14.2743C29.5807 14.4615 29.512 14.7683 29.4714 14.956L28.9461 17.3823L28.4211 19.8086C28.3803 19.9958 28.2965 20.2982 28.2338 20.4798C28.2338 20.4798 27.5067 22.6039 26.2843 22.5797C26.2323 22.5786 26.1817 22.5781 26.1316 22.5769C25.5393 22.5659 25.0738 22.5577 25.0738 22.5577H25.0729C24.8781 22.5549 24.6821 22.7042 24.6365 22.8903L24.2329 24.556L23.8297 26.2212C23.7844 26.4073 23.9069 26.5609 24.1009 26.5643C24.7942 26.5725 26.3468 26.5895 27.2869 26.5895C30.3404 26.5895 31.9501 24.9287 32.982 20.1495L34.1897 14.6644L35.3224 9.52018C35.3635 9.33302 35.2375 9.17989 35.0423 9.17989L35.0426 9.17981Z" fill="#1A1918"/>
<path d="M90.3353 20.1433C90.1402 20.1433 90.0135 19.9896 90.0546 19.8019L92.9827 6.33826" fill="#808080"/>
<path d="M94.4062 19.8014L95.5904 14.0549L94.4062 19.8014Z" fill="#808080"/>
<path d="M90.0974 19.9727C90.0736 19.8789 90.0876 19.6489 90.129 19.4612L91.5186 13.0704L90.0546 19.802C90.0135 19.9897 90.1402 20.1434 90.3353 20.1434H90.6909C90.4955 20.1434 90.1209 20.0666 90.0974 19.9727L90.0974 19.9727Z" fill="#808080"/>
<path d="M94.1737 20.0664C94.0675 20.1087 93.8204 20.1433 93.625 20.1433H93.9806C94.1757 20.1433 94.3675 19.9896 94.406 19.8014L94.4765 19.46C94.4376 19.6477 94.2802 20.0242 94.1737 20.0664Z" fill="#808080"/>
<path d="M95.0001 16.9282L95.5228 14.392C95.5226 14.3935 95.5224 14.3958 95.5219 14.3969L95 16.9282H95.0001Z" fill="#808080"/>
<path d="M106.554 7.24023L106.715 7.89447C106.76 8.08162 106.636 8.23365 106.441 8.23419" fill="#808080"/>
<path d="M94.4766 19.4601L94.9979 16.9283L94.4766 19.4601Z" fill="#808080"/>
<path d="M106.391 6.56995L106.55 7.24009L106.391 6.56995Z" fill="#808080"/>
<path d="M95.5195 14.3921C95.5584 14.2043 95.6227 13.9003 95.6632 13.7142L96.2215 11.1467L95.5891 14.055L95.5195 14.392V14.3921Z" fill="#808080"/>
<path d="M93.0308 6.11768C92.9919 6.2988 92.9422 6.52766 92.9092 6.67915L91.5195 13.0704L92.9835 6.33835L93.0308 6.11771V6.11768Z" fill="#808080"/>
<path d="M106.711 7.89427L106.55 7.24003L106.39 6.56989L106.31 6.2307C105.993 5.02488 105.065 4.32895 103.05 4.32895L99.9127 4.32567L97.0233 4.32239H96.7753H93.7721C93.577 4.32239 93.3838 4.47551 93.3436 4.66322H93.3433L93.1997 5.33006L93.03 6.11764L92.9827 6.33828L91.5187 13.0703L90.1291 19.4611C90.0877 19.6488 90.0737 19.8788 90.0975 19.9726C90.121 20.0665 90.4956 20.1433 90.691 20.1433H93.6241C93.8195 20.1433 94.0666 20.1088 94.1729 20.0665C94.2794 20.0242 94.4367 19.6477 94.4756 19.46L94.997 16.9282L95.5189 14.3969C95.5191 14.3958 95.5193 14.3936 95.5198 14.392L95.5894 14.055L96.2217 11.1467L96.7803 8.57804C96.8216 8.39144 97.014 8.23885 97.2088 8.23831L106.438 8.23393C106.633 8.23348 106.756 8.08135 106.711 7.8942L106.711 7.89427Z" fill="#1A1918"/>
<path d="M118.592 1.97884C118.397 1.98019 118.077 1.98138 117.882 1.98138H114.928C114.732 1.98138 114.482 2.11091 114.372 2.26924L107.84 11.6632C107.73 11.8218 107.604 11.7982 107.561 11.6116L107.08 9.54195C107.037 9.35479 106.841 9.20222 106.646 9.20222H102.447C102.251 9.20222 102.135 9.3526 102.189 9.53702L104.07 16.0078C104.124 16.1923 104.128 16.4952 104.08 16.6807L103.26 19.8125C103.211 19.9986 103.331 20.1506 103.526 20.1506H107.677C107.872 20.1506 108.072 19.9986 108.12 19.8125L108.94 16.6807C108.989 16.4952 109.125 16.2175 109.242 16.0644L119.847 2.24802C119.964 2.0949 119.901 1.9703 119.706 1.97169L118.592 1.97882L118.592 1.97884Z" fill="#1A1918"/>
<path d="M85.2327 10.0831L85.2325 10.0793C85.2079 10.2873 85.0125 10.4399 84.8173 10.4399H79.4934C79.3094 10.4399 79.2158 10.3169 79.2429 10.1654C79.2445 10.1611 79.2452 10.1572 79.2479 10.1534C79.2479 10.1534 79.2461 10.1538 79.2446 10.1549C79.2457 10.1489 79.2457 10.1434 79.2474 10.1374C79.2474 10.1374 79.2575 10.1006 79.2718 10.0485C79.7803 8.72136 80.816 7.85035 82.7625 7.85035C84.9539 7.85035 85.3817 8.90139 85.2328 10.083L85.2327 10.0831ZM83.6709 4.05066C76.837 4.05066 75.2177 8.12257 74.3093 12.2323C73.4007 16.4211 73.479 20.3376 80.5504 20.3376H80.8014C80.8238 20.3372 80.8467 20.3372 80.8691 20.3372H81.067H81.1397H81.3253C81.3527 20.3367 81.3801 20.3367 81.4081 20.3367C81.4785 20.3367 81.5498 20.3363 81.6211 20.3363H81.6711C81.9509 20.3358 82.235 20.3345 82.5196 20.3335H82.5338C84.4015 20.3264 86.2744 20.3126 87.0331 20.3066C87.2271 20.3038 87.4169 20.1502 87.4569 19.9641L87.7432 18.5904L87.7988 18.3231L88.1404 16.6848C88.1796 16.4971 88.0518 16.3434 87.8564 16.3434H81.4989C78.9705 16.3434 78.2195 15.6837 78.4962 13.7446H88.6589L88.6579 13.7458C88.6605 13.7458 88.6627 13.7446 88.6649 13.7446C88.8265 13.7418 88.9758 13.6327 89.0351 13.4872C89.0463 13.4592 89.0558 13.4302 89.0596 13.4L89.0585 13.4011C90.5675 7.81376 90.1348 4.05095 83.6704 4.05095L83.6709 4.05066Z" fill="#1A1918"/>
<path d="M51.3701 10.0617L51.274 10.3959C51.274 10.3971 51.2737 10.3971 51.2737 10.3971L50.5064 13.0666L49.7393 15.7358C49.6862 15.9202 49.4832 16.0711 49.2875 16.0711H45.2258C42.145 16.0711 41.3948 13.7057 42.145 10.2167C42.8951 6.64812 44.3658 4.42974 47.398 4.20516C51.5416 3.89834 52.3706 6.7594 51.3701 10.0618L51.3701 10.0617ZM54.1555 15.8657C54.1555 15.8657 56.0705 11.3015 56.5054 8.66497C57.0985 5.13574 55.2985 0.0175781 48.3458 0.0175781C41.4328 0.0175781 38.431 4.90419 37.2855 10.2164C36.1402 15.567 37.6408 20.2596 44.5146 20.2211L49.9372 20.2014L55.0054 20.1833C55.2005 20.1817 55.4001 20.0296 55.4499 19.8446L56.3327 16.5388C56.3819 16.3533 56.2625 16.2007 56.0674 16.1996L55.2212 16.1947L54.3753 16.1898C54.2092 16.1886 54.1142 16.0833 54.1343 15.9433C54.138 15.9181 54.1438 15.8923 54.155 15.8654L54.1555 15.8657Z" fill="#1A1918"/>
<path d="M88.3804 12.8108C88.3804 12.9371 88.2761 13.0397 88.1472 13.0397C88.0186 13.0397 87.9141 12.9371 87.9141 12.8108C87.9141 12.6846 88.0186 12.5825 88.1472 12.5825C88.2761 12.5825 88.3804 12.6846 88.3804 12.8108Z" fill="#808080"/>
<path d="M1.36913 6.87624C-0.539654 9.56942 -0.302035 13.0732 1.15611 15.9348C1.19077 16.0034 1.22711 16.0709 1.2629 16.1384C1.28582 16.1812 1.30734 16.2251 1.33111 16.2674C1.34453 16.2926 1.35962 16.3173 1.3736 16.3415C1.39847 16.3871 1.42392 16.4304 1.44963 16.4749C1.49492 16.5534 1.54133 16.6313 1.58885 16.7092C1.61513 16.752 1.64113 16.7948 1.66824 16.8377C1.7208 16.9211 1.77475 17.0034 1.82982 17.0857C1.85275 17.1209 1.87511 17.156 1.89859 17.19C1.97463 17.3014 2.05234 17.4123 2.13257 17.5215C2.13456 17.5243 2.13675 17.5276 2.13927 17.5303C2.15186 17.5478 2.16583 17.5649 2.17868 17.5824C2.24801 17.6763 2.31958 17.769 2.39198 17.8607C2.41855 17.8942 2.44537 17.9276 2.47221 17.9611C2.53679 18.0407 2.60248 18.1197 2.6693 18.1988C2.69417 18.2284 2.71933 18.258 2.74449 18.2871C2.83423 18.3909 2.92564 18.494 3.019 18.595C3.02072 18.5966 3.02293 18.5989 3.02458 18.6005C3.02851 18.6049 3.03186 18.6076 3.0352 18.612C3.12634 18.7097 3.21971 18.8052 3.3142 18.9007C3.34355 18.9303 3.37347 18.96 3.40366 18.9891C3.4769 19.0615 3.55126 19.1329 3.62646 19.2037C3.65693 19.2322 3.68712 19.2613 3.71759 19.2887C3.81795 19.3815 3.91943 19.4726 4.02286 19.5615C4.02458 19.5631 4.02592 19.5643 4.02761 19.5654C4.04522 19.5807 4.0634 19.595 4.08073 19.6098C4.17186 19.6872 4.26467 19.764 4.35803 19.8398C4.39605 19.87 4.43463 19.8996 4.47293 19.9298C4.54925 19.9896 4.6264 20.0489 4.70411 20.1071C4.74521 20.1378 4.7863 20.1686 4.82768 20.1993C4.9135 20.2613 4.99988 20.3222 5.0871 20.3821C5.11896 20.4046 5.14972 20.4265 5.18158 20.4479C5.19051 20.454 5.19864 20.46 5.20757 20.466C5.29032 20.522 5.37502 20.5758 5.45946 20.6296C5.4958 20.6532 5.53186 20.6779 5.56849 20.7009C5.6982 20.7816 5.82987 20.8612 5.96293 20.938C5.99899 20.9584 6.03561 20.9781 6.07195 20.9984C6.16979 21.0538 6.2682 21.1082 6.36799 21.1614C6.42194 21.19 6.47729 21.2169 6.53181 21.2443C6.60225 21.2805 6.67214 21.3173 6.7437 21.3524C6.75991 21.3601 6.77669 21.3678 6.79263 21.3755C6.82142 21.3892 6.85049 21.4024 6.87929 21.4166C6.99027 21.4688 7.10209 21.5198 7.21503 21.5692C7.23908 21.5796 7.26228 21.5901 7.28604 21.6005C7.41547 21.6559 7.54601 21.7092 7.67769 21.7602C7.70928 21.7728 7.74115 21.7849 7.77302 21.797C7.8949 21.8431 8.01847 21.8886 8.14259 21.9314C8.15825 21.9369 8.17334 21.9419 8.18899 21.9473C8.32514 21.994 8.46268 22.0373 8.60105 22.0796C8.63403 22.0889 8.6673 22.0994 8.70057 22.1087C8.84146 22.1504 8.98069 22.2003 9.12604 22.2267C18.3573 23.8793 21.0388 16.781 21.0388 16.781C18.7867 19.6612 14.7892 20.4208 11.0016 19.5751C10.8582 19.5433 10.719 19.4994 10.5789 19.4588C10.5434 19.4483 10.5085 19.4379 10.4735 19.4275C10.3368 19.3863 10.2013 19.3429 10.0665 19.2974C10.0481 19.2908 10.0293 19.2842 10.0106 19.2776C9.88985 19.2359 9.77048 19.192 9.65167 19.147C9.61812 19.1338 9.58457 19.1212 9.55103 19.108C9.42076 19.0575 9.29134 19.0049 9.16357 18.95C9.13729 18.939 9.11213 18.9275 9.08613 18.9165C8.97627 18.8676 8.86753 18.8183 8.75934 18.7672C8.72803 18.7524 8.69672 18.7381 8.66485 18.7228C8.57989 18.6821 8.49584 18.6387 8.41203 18.5964C8.35592 18.5674 8.2989 18.54 8.24325 18.5096C8.14088 18.4559 8.04035 18.3999 7.94027 18.3428C7.90638 18.3242 7.87203 18.3062 7.83791 18.2869C7.70485 18.21 7.5734 18.1304 7.44333 18.0497C7.40737 18.0272 7.37233 18.0031 7.33684 17.98C7.24249 17.9202 7.14859 17.8593 7.05607 17.7968C7.02539 17.7763 6.99584 17.7545 6.96562 17.7343C6.8763 17.6722 6.78791 17.6095 6.7002 17.5459C6.66035 17.5169 6.62119 17.4877 6.58249 17.4587C6.5021 17.3982 6.42218 17.3373 6.34294 17.2748C6.30716 17.2468 6.27138 17.2188 6.23616 17.1908C6.13552 17.1096 6.036 17.0278 5.93787 16.9438C5.92754 16.9351 5.91635 16.9263 5.90517 16.9169C5.79894 16.8253 5.69466 16.7314 5.59152 16.637C5.5616 16.609 5.53253 16.5816 5.50318 16.5536C5.42686 16.4823 5.35166 16.4104 5.27786 16.3368C5.24823 16.3077 5.21859 16.2792 5.18952 16.2501C5.09559 16.1557 5.00334 16.0602 4.91304 15.9631C4.90858 15.9581 4.90382 15.9537 4.89936 15.9488C4.80375 15.8462 4.71038 15.7413 4.61896 15.6354C4.59409 15.6063 4.57004 15.5783 4.54544 15.5498C4.47723 15.4691 4.40958 15.3873 4.3436 15.305C4.31887 15.2753 4.29414 15.245 4.26963 15.2144C4.19017 15.1132 4.11253 15.0123 4.0365 14.9098C1.93369 12.0941 1.17826 8.21057 2.85895 5.02124" fill="#21609B"/>
<path d="M7.29452 4.60734C5.91411 6.55738 5.98902 9.16776 7.06585 11.2301C7.24644 11.5759 7.44939 11.9112 7.67638 12.2307C7.88324 12.5216 8.11248 12.8679 8.38699 13.1017C8.48651 13.2093 8.59051 13.3141 8.69672 13.4173C8.72355 13.4442 8.75096 13.47 8.77835 13.4963C8.88151 13.5945 8.98634 13.6911 9.0948 13.785C9.09926 13.7883 9.10319 13.7927 9.10765 13.796C9.1088 13.7971 9.10994 13.7976 9.11071 13.7988C9.23064 13.902 9.35447 14.0013 9.48029 14.099C9.50825 14.1198 9.53592 14.1418 9.56415 14.1632C9.69023 14.2582 9.81883 14.3515 9.95076 14.4404C9.95468 14.4432 9.95803 14.4459 9.96195 14.4486C10.0201 14.4881 10.0794 14.5249 10.1384 14.5628C10.1666 14.5809 10.1934 14.6001 10.2219 14.6171C10.3161 14.6764 10.4115 14.734 10.5085 14.7894C10.5222 14.7977 10.5356 14.8048 10.549 14.8125C10.6326 14.8597 10.7173 14.9063 10.8023 14.9513C10.8319 14.9678 10.8621 14.9821 10.8923 14.9974C10.951 15.0276 11.0097 15.0584 11.0695 15.0875C11.0785 15.0918 11.0877 15.0957 11.0964 15.0996C11.218 15.1583 11.3407 15.2148 11.4659 15.2686C11.4928 15.2801 11.5204 15.2905 11.5476 15.3015C11.6476 15.3432 11.7488 15.3839 11.8506 15.4223C11.8936 15.4382 11.9372 15.4536 11.9803 15.4689C12.0725 15.5024 12.1651 15.5331 12.2584 15.5639C12.3007 15.577 12.342 15.5908 12.3842 15.6034C12.517 15.644 12.6481 15.695 12.7865 15.7176C19.9139 16.8767 21.5593 11.4898 21.5593 11.4898C20.0761 13.587 17.2036 14.5875 14.1383 13.8065C14.0022 13.7713 13.868 13.7329 13.7347 13.6918C13.6939 13.6797 13.6539 13.6665 13.6134 13.6533C13.5186 13.6232 13.4244 13.5913 13.331 13.5578C13.2882 13.5425 13.2455 13.5271 13.2035 13.5112C13.1012 13.4728 13 13.4327 12.8997 13.391C12.8723 13.3795 12.8446 13.3691 12.8178 13.357C12.692 13.3032 12.5681 13.2467 12.446 13.1874C12.3831 13.1572 12.3213 13.1254 12.2595 13.0941C12.2237 13.076 12.1877 13.0579 12.1519 13.0397C12.0725 12.9975 11.9936 12.9536 11.9159 12.9091C11.8975 12.8987 11.8782 12.8888 11.8595 12.8778C11.763 12.8224 11.668 12.7653 11.5737 12.7066C11.5447 12.6885 11.5167 12.6687 11.4876 12.6501C11.4256 12.6105 11.3635 12.5705 11.3026 12.5299C11.1712 12.4409 11.0434 12.3476 10.9174 12.2532C10.8883 12.2307 10.8592 12.2088 10.8307 12.1863C9.48895 11.1463 8.42544 9.72533 7.91979 8.11392C7.38987 6.44271 7.50414 4.5667 8.42223 3.04431" fill="#21609B"/>
<path d="M12.2788 2.91193C11.465 4.08756 11.3851 5.54756 11.9498 6.84604C12.5452 8.22419 13.7654 9.30542 15.1895 9.81798C15.2482 9.8394 15.3069 9.85859 15.3665 9.87835C15.3925 9.88604 15.4182 9.89483 15.4445 9.90249C15.5283 9.92828 15.6116 9.95847 15.6983 9.97438C19.6338 10.7208 20.7012 7.99195 20.9854 7.59032C20.0503 8.91193 18.4789 9.22915 16.5509 8.76978C16.3986 8.73337 16.2312 8.67941 16.0844 8.62838C15.8962 8.56251 15.7107 8.48743 15.5304 8.40245C15.1881 8.24104 14.8617 8.04501 14.5592 7.82065C12.8339 6.53566 11.7621 4.08415 12.8879 2.08765" fill="#21609B"/>
<path d="M56.5992 25.8096L55.4647 28.3458H54.2124L54.3149 26.0413L53.393 28.3458H52.1803L52.1484 25.8096L52.2823 25.1833H53.1411L52.9756 27.6884L53.9289 25.1833H55.1262L55.0396 27.7196L55.985 25.1833H56.7331L56.5992 25.8096H56.5992Z" fill="#21609B"/>
<path d="M58.5746 26.5604C58.685 26.0653 58.6534 25.9726 58.3934 25.9726H57.9995L57.7474 27.1328L57.3613 28.3463H56.6289L57.2274 25.5938L57.3144 25.1915H57.9839L58.0705 25.377C58.0705 25.377 58.4566 25.1531 58.8343 25.1531C59.638 25.1531 59.5751 25.748 59.4015 26.5603H58.5746L58.5746 26.5604Z" fill="#21609B"/>
<path d="M60.9548 24.7889C60.6322 24.7889 60.4273 24.6962 60.5058 24.3098C60.5925 23.9228 60.8447 23.8301 61.1594 23.8301C61.475 23.8301 61.6875 23.9228 61.6008 24.3098C61.522 24.6885 61.2701 24.7889 60.9548 24.7889H60.9548ZM60.6084 28.346H59.8833L60.0253 27.109L60.2775 25.9646L59.7734 25.8559L59.9152 25.1836H61.2934L60.6085 28.346L60.6084 28.346Z" fill="#21609B"/>
<path d="M63.7529 25.8546L62.8472 25.9633L62.5869 27.1696C62.5159 27.5022 62.5159 27.595 62.8156 27.595H63.4219L63.2958 28.2289C63.2958 28.2289 62.7449 28.3914 62.5081 28.3914C61.5786 28.3914 61.5864 27.8886 61.7522 27.1384L62.0043 25.9556L61.5 25.8475L61.6496 25.1746H62.1776L62.477 24.3777H63.1938L63.0202 25.1746H63.9025L63.7529 25.8546L63.7529 25.8546Z" fill="#21609B"/>
<path d="M65.6333 25.8951C65.2081 25.8951 64.9873 26.1119 64.9009 26.4983L66.1139 26.3978C66.169 26.135 66.1139 25.8951 65.6333 25.8951V25.8951ZM64.783 27.0702C64.7273 27.4571 64.8772 27.5883 65.3812 27.5883H66.6492L66.5234 28.1761C66.5234 28.1761 65.7594 28.3847 65.1922 28.3847C63.7822 28.3847 63.7662 27.6042 63.9476 26.7689C64.1288 25.9489 64.4517 25.1377 65.8142 25.1377C67.13 25.1377 67.1932 25.9182 66.8701 27.0702H64.7829L64.783 27.0702Z" fill="#21609B"/>
<path d="M69.7595 28.3453H69.0352L69.1769 27.1082L69.689 24.7574L69.1844 24.6416L69.3343 23.9688H70.713L69.7595 28.3453V28.3453Z" fill="#21609B"/>
<path d="M72.3797 25.8951C71.9539 25.8951 71.7336 26.1119 71.6467 26.4983L72.8599 26.3978C72.9147 26.135 72.8599 25.8951 72.3796 25.8951L72.3797 25.8951ZM71.5287 27.0702C71.4736 27.4571 71.6235 27.5883 72.1272 27.5883H73.3955L73.2695 28.1761C73.2695 28.1761 72.5052 28.3847 71.938 28.3847C70.5279 28.3847 70.5125 27.6042 70.6937 26.7689C70.8751 25.9489 71.198 25.1377 72.5605 25.1377C73.8761 25.1377 73.939 25.9182 73.6164 27.0702H71.5287L71.5287 27.0702Z" fill="#21609B"/>
<path d="M76.939 25.9333C76.939 25.9333 76.0174 25.941 75.7655 25.941C75.2296 25.941 75.1745 26.1029 75.1354 26.2731L75.1035 26.4279L76.8051 26.5519C76.8051 26.5519 76.8129 27.0854 76.742 27.3867C76.6396 27.8894 76.1118 28.3993 75.1589 28.3993C74.6859 28.3993 73.9219 28.222 73.9219 28.222L74.0558 27.6112H75.2296C75.7496 27.6112 75.8206 27.4718 75.8524 27.3329L75.8916 27.132L74.2215 27.008C74.2215 27.008 74.1586 26.598 74.245 26.1886C74.3714 25.6315 74.8908 25.1523 75.844 25.1523C76.3167 25.1523 77.0807 25.3219 77.0807 25.3219L76.939 25.9333L76.939 25.9333Z" fill="#21609B"/>
<path d="M80.1029 25.9333C80.1029 25.9333 79.1815 25.941 78.9293 25.941C78.3937 25.941 78.3386 26.1029 78.2992 26.2731L78.2673 26.4279L79.9692 26.5519C79.9692 26.5519 79.977 27.0854 79.9061 27.3867C79.8037 27.8894 79.2759 28.3993 78.3227 28.3993C77.8502 28.3993 77.0859 28.222 77.0859 28.222L77.2198 27.6112H78.3937C78.9133 27.6112 78.9843 27.4718 79.0162 27.3329L79.0554 27.132L77.3853 27.008C77.3853 27.008 77.3224 26.598 77.4088 26.1886C77.5351 25.6315 78.0545 25.1523 79.0081 25.1523C79.4805 25.1523 80.2446 25.3219 80.2446 25.3219L80.1028 25.9333L80.1029 25.9333Z" fill="#21609B"/>
<path d="M81.0988 28.8491H80.469L80.4925 28.3848C80.2638 28.37 80.1458 28.2075 80.2009 27.9364C80.2876 27.55 80.5319 27.4573 80.8548 27.4573C81.1698 27.4573 81.382 27.55 81.2959 27.9364L81.0988 28.8491V28.8491Z" fill="#21609B"/>
<path d="M85.3104 25.9648C84.8379 25.9648 84.6727 26.243 84.5623 26.7535C84.4519 27.2639 84.4835 27.5652 84.9559 27.5652H85.6098L85.9723 25.9648H85.3104ZM86.3897 27.9362L86.3027 28.3462L85.6416 28.3385L85.5468 28.1376C85.5468 28.1376 84.9637 28.3846 84.5704 28.3846C83.5618 28.3846 83.5145 27.5729 83.6957 26.7534C83.8768 25.9181 84.2707 25.1294 85.2712 25.1294C85.6338 25.1294 86.1219 25.3073 86.1219 25.3073L86.5236 23.9697H87.2485L86.3897 27.9362L86.3897 27.9362Z" fill="#21609B"/>
<path d="M88.9971 25.9332C88.3829 25.9332 88.1855 26.273 88.0754 26.768C87.9731 27.2708 88.0206 27.6111 88.6267 27.6111C89.2571 27.6111 89.4463 27.2784 89.5562 26.768C89.6669 26.2883 89.635 25.9332 88.9971 25.9332H88.9971ZM88.4618 28.3922C87.1618 28.3922 87.0592 27.5958 87.2326 26.7681C87.414 25.941 87.8708 25.1523 89.1707 25.1523C90.4622 25.1523 90.5807 25.941 90.399 26.7681C90.2182 27.6112 89.7611 28.3922 88.4618 28.3922Z" fill="#21609B"/>
<path d="M95.8333 28.3454L95.9754 27.1236L96.0461 26.7757C96.1487 26.3119 96.2116 25.9716 95.7151 25.9716H95.3293C95.3453 26.2115 95.2977 26.4821 95.2348 26.768L94.8963 28.3454H94.1636L94.3053 27.1236L94.376 26.7757C94.4786 26.3119 94.5413 25.9716 94.0456 25.9716H93.7303L93.2103 28.3454H92.3672L93.0527 25.183H93.7143L93.8167 25.3762C93.8167 25.3762 94.2659 25.144 94.6282 25.144C94.9038 25.144 95.1087 25.2681 95.1797 25.4223C95.3371 25.3372 95.7864 25.144 96.1095 25.144C97.117 25.144 97.086 25.9481 96.9046 26.7681L96.566 28.3454H95.8333L95.8333 28.3454Z" fill="#21609B"/>
<path d="M99.1847 25.9332C98.5699 25.9332 98.3731 26.273 98.263 26.768C98.1607 27.2708 98.2082 27.6111 98.8142 27.6111C99.4444 27.6111 99.6339 27.2784 99.744 26.768C99.8542 26.2883 99.8226 25.9332 99.1847 25.9332ZM98.649 28.3922C97.3488 28.3922 97.2468 27.5958 97.4201 26.7681C97.6013 25.941 98.0581 25.1523 99.358 25.1523C100.65 25.1523 100.768 25.941 100.587 26.7681C100.406 27.6112 99.9487 28.3922 98.649 28.3922Z" fill="#21609B"/>
<path d="M102.774 26.5604C102.884 26.0653 102.853 25.9726 102.593 25.9726H102.199L101.947 27.1328L101.561 28.3463H100.828L101.427 25.5938L101.514 25.1915H102.183L102.269 25.377C102.269 25.377 102.656 25.1531 103.034 25.1531C103.837 25.1531 103.774 25.748 103.601 26.5603H102.774L102.774 26.5604Z" fill="#21609B"/>
<path d="M105.594 25.8951C105.169 25.8951 104.948 26.1119 104.862 26.4983L106.074 26.3978C106.13 26.135 106.074 25.8951 105.594 25.8951V25.8951ZM104.743 27.0702C104.689 27.4571 104.838 27.5883 105.342 27.5883H106.61L106.484 28.1761C106.484 28.1761 105.72 28.3847 105.153 28.3847C103.743 28.3847 103.728 27.6042 103.908 26.7689C104.09 25.9489 104.413 25.1377 105.775 25.1377C107.091 25.1377 107.154 25.9182 106.831 27.0702H104.743V27.0702Z" fill="#21609B"/>
<path d="M107.539 28.3926C107.208 28.3926 107.004 28.2998 107.09 27.9211C107.169 27.5336 107.413 27.4414 107.744 27.4414C108.051 27.4414 108.264 27.5336 108.185 27.9211C108.098 28.2921 107.846 28.3926 107.539 28.3926Z" fill="#21609B"/>
</g>
<defs>
<clipPath id="clip0_2_421">
<rect width="120" height="29" fill="white" transform="translate(0 0.0175781)"/>
</clipPath>
</defs>
</svg>
